<?xml version="1.0" encoding="utf-8"?>
<!-- Generator: Adobe Illustrator 18.1.1, SVG Export Plug-In . SVG Version: 6.00 Build 0)  -->
<!DOCTYPE svg PUBLIC "-//W3C//DTD SVG 1.1//EN" "http://www.w3.org/Graphics/SVG/1.1/DTD/svg11.dtd">
<svg version="1.1" id="Layer_1" xmlns="http://www.w3.org/2000/svg" xmlns:xlink="http://www.w3.org/1999/xlink" x="0px" y="0px"
	 width="87px" height="100px" viewBox="0 0 87 100" style="enable-background:new 0 0 87 100;" xml:space="preserve">
<style type="text/css">
	.st0{fill:#EEF0F3;}
	.st1{fill:none;stroke:#0192C8;stroke-width:1.7442;stroke-linecap:round;stroke-linejoin:round;stroke-miterlimit:10;}
	.st2{fill:#A4DCED;}
	.st3{fill:none;stroke:#0192C8;stroke-width:1.7127;stroke-linecap:round;stroke-linejoin:round;stroke-miterlimit:10;}
	.st4{fill:#0192C8;}
</style>
<polygon class="st0" points="0.2,25 43.5,0 86.8,25 86.8,75 43.5,100 0.2,75 "/>
<rect x="31" y="32.5" class="st1" width="25" height="45.1"/>
<rect x="56" y="51.3" class="st1" width="11" height="26.3"/>
<rect x="35.2" y="24.7" class="st1" width="16.7" height="7.9"/>
<rect x="37.6" y="27" class="st2" width="11.8" height="3.2"/>
<rect x="34.6" y="36.5" class="st2" width="17.7" height="37.5"/>
<line class="st1" x1="43.5" y1="24.3" x2="43.5" y2="18.4"/>
<g>
	<line class="st3" x1="39.1" y1="40.1" x2="39.1" y2="70.2"/>
	<line class="st3" x1="47.9" y1="40.1" x2="47.9" y2="70.2"/>
	<line class="st3" x1="43.5" y1="40.1" x2="43.5" y2="70.2"/>
</g>
<rect x="59.6" y="56.2" class="st4" width="3.7" height="6.9"/>
<rect x="59.6" y="65.9" class="st4" width="3.7" height="6.9"/>
<rect x="20" y="51.3" class="st1" width="11" height="26.3"/>
<line class="st3" x1="23.5" y1="56.3" x2="27.5" y2="56.3"/>
<line class="st3" x1="23.5" y1="60.4" x2="27.5" y2="60.4"/>
<line class="st3" x1="23.5" y1="64.5" x2="27.5" y2="64.5"/>
<line class="st3" x1="23.5" y1="68.6" x2="27.5" y2="68.6"/>
<line class="st3" x1="23.5" y1="72.6" x2="27.5" y2="72.6"/>
</svg>
