<?xml version="1.0" encoding="utf-8"?>
<!-- Generator: Adobe Illustrator 18.1.1, SVG Export Plug-In . SVG Version: 6.00 Build 0)  -->
<!DOCTYPE svg PUBLIC "-//W3C//DTD SVG 1.1//EN" "http://www.w3.org/Graphics/SVG/1.1/DTD/svg11.dtd">
<svg version="1.1" id="Layer_1" xmlns="http://www.w3.org/2000/svg" xmlns:xlink="http://www.w3.org/1999/xlink" x="0px" y="0px"
	 width="42px" height="48px" viewBox="0 0 42 48" style="enable-background:new 0 0 42 48;" xml:space="preserve">
<style type="text/css">
	.st0{fill:#EEF0F3;}
	.st1{fill:#1F2D3B;}
</style>
<polygon class="st0" points="0.5,12.2 21,0.3 41.5,12.2 41.5,35.8 21,47.7 0.5,35.8 "/>
<path class="st1" d="M25.7,18.5l-1.5,8.2c-0.1,0.2-0.1,0.3-0.1,0.4c0,0.1,0.1,0.2,0.1,0.3c0.1,0.1,0.2,0.1,0.4,0.1
	c0.4,0,0.8-0.1,1.2-0.4c0.7-0.4,1.2-1,1.7-1.8c0.4-0.8,0.7-1.7,0.7-2.8c0-1.8-0.6-3.3-1.8-4.3c-1.2-1.1-2.8-1.6-4.8-1.6
	c-1.5,0-2.8,0.3-4,0.9c-1.2,0.7-2.1,1.5-2.8,2.7c-0.7,1.2-1,2.5-1,3.9c0,2.2,0.7,4,2.1,5.3c1.4,1.3,3.3,2,5.5,2
	c1.1,0,2.1-0.2,3.2-0.5c1-0.3,2-0.8,2.9-1.4H30c-0.7,0.7-1.2,1.2-1.8,1.6c-0.8,0.5-1.8,1-3,1.4s-2.4,0.5-3.7,0.5
	c-1.8,0-3.4-0.4-4.9-1.1c-1.4-0.7-2.5-1.8-3.4-3.1c-0.8-1.4-1.2-2.9-1.2-4.5c0-1.7,0.4-3.3,1.2-4.7c0.8-1.4,2-2.5,3.4-3.3
	c1.4-0.8,3.1-1.1,5-1.1c2.5,0,4.5,0.7,6,2.1s2.3,3.1,2.3,5.3c0,1.3-0.3,2.5-0.9,3.6c-0.6,1.1-1.5,2-2.7,2.5
	c-0.9,0.5-1.8,0.7-2.5,0.7c-0.5,0-0.8-0.1-1.1-0.3c-0.3-0.2-0.5-0.5-0.7-0.9c-0.5,0.5-1,0.8-1.4,0.9c-0.4,0.2-0.9,0.2-1.4,0.2
	c-1.1,0-2-0.4-2.7-1.1c-0.8-0.8-1.1-1.9-1.1-3.3c0-1.7,0.5-3.2,1.5-4.6c0.9-1.4,2.2-2.1,3.6-2.1c0.5,0,1.1,0.1,1.5,0.4
	c0.4,0.2,0.8,0.7,1.3,1.2l0.2-1.2L25.7,18.5L25.7,18.5z M17.9,25.3c0,0.8,0.2,1.5,0.6,1.9c0.3,0.4,0.7,0.5,1.1,0.5
	c0.5,0,0.9-0.2,1.4-0.5c0.4-0.4,0.8-1.1,1.1-2.2c0.3-1.1,0.5-2.1,0.5-3c0-0.7-0.2-1.2-0.5-1.5c-0.4-0.4-0.7-0.5-1.2-0.5
	c-0.5,0-0.9,0.2-1.4,0.5c-0.5,0.5-0.9,1.2-1.2,2.2C18,23.6,17.9,24.5,17.9,25.3L17.9,25.3z"/>
</svg>
