<?xml version="1.0" encoding="utf-8"?>
<!-- Generator: Adobe Illustrator 18.1.1, SVG Export Plug-In . SVG Version: 6.00 Build 0)  -->
<!DOCTYPE svg PUBLIC "-//W3C//DTD SVG 1.1//EN" "http://www.w3.org/Graphics/SVG/1.1/DTD/svg11.dtd">
<svg version="1.1" id="Layer_1" xmlns="http://www.w3.org/2000/svg" xmlns:xlink="http://www.w3.org/1999/xlink" x="0px" y="0px"
	 width="20px" height="20px" viewBox="0 0 20 20" style="enable-background:new 0 0 20 20;" xml:space="preserve">
<style type="text/css">
	.st0{fill:#31C5F4;}
</style>
<g>
	<g id="post-linkedin">
		<path class="st0" d="M18,0H2C0.9,0,0,0.9,0,2v16c0,1.1,0.9,2,2,2h16c1.1,0,2-0.9,2-2V2C20,0.9,19.1,0,18,0z M6,17H3V8h3V17z
			 M4.5,6.3c-1,0-1.8-0.8-1.8-1.8s0.8-1.8,1.8-1.8s1.8,0.8,1.8,1.8S5.5,6.3,4.5,6.3z M17,17h-3v-5.3c0-0.8-0.7-1.5-1.5-1.5
			S11,10.9,11,11.7V17H8V8h3v1.2c0.5-0.8,1.6-1.4,2.5-1.4c1.9,0,3.5,1.6,3.5,3.5V17z"/>
	</g>
</g>
</svg>
