<?xml version="1.0" encoding="utf-8"?>
<!-- Generator: Adobe Illustrator 18.1.1, SVG Export Plug-In . SVG Version: 6.00 Build 0)  -->
<!DOCTYPE svg PUBLIC "-//W3C//DTD SVG 1.1//EN" "http://www.w3.org/Graphics/SVG/1.1/DTD/svg11.dtd">
<svg version="1.1" id="Layer_1" xmlns="http://www.w3.org/2000/svg" xmlns:xlink="http://www.w3.org/1999/xlink" x="0px" y="0px"
	 width="42px" height="48px" viewBox="0 0 42 48" style="enable-background:new 0 0 42 48;" xml:space="preserve">
<style type="text/css">
	.st0{fill:#EEF0F3;}
	.st1{fill:#1F2D3B;}
</style>
<polygon class="st0" points="0.5,12.2 21,0.3 41.5,12.2 41.5,35.8 21,47.7 0.5,35.8 "/>
<path class="st1" d="M16.9,26.6c2.7,3.2,9.2,6.3,10.7,5.6c1.6-0.7,1.9-2.2,1.8-2.9c-0.1-0.7-3.6-2.8-4.5-3.2S23,27,22.5,27.6
	c-0.5,0.5-2.5-1.1-3.3-1.9c0,0-2.2-2.5-1.7-3c0.5-0.5,1.8-1.6,1.3-2.5c-0.4-0.9-2.7-4.4-3.4-4.4c-0.7,0-2.2,0.4-2.8,2
	s2.4,7.7,5.7,10.2"/>
</svg>
