<?xml version="1.0" encoding="utf-8"?>
<!-- Generator: Adobe Illustrator 18.1.1, SVG Export Plug-In . SVG Version: 6.00 Build 0)  -->
<!DOCTYPE svg PUBLIC "-//W3C//DTD SVG 1.1//EN" "http://www.w3.org/Graphics/SVG/1.1/DTD/svg11.dtd">
<svg version="1.1" id="Layer_1" xmlns="http://www.w3.org/2000/svg" xmlns:xlink="http://www.w3.org/1999/xlink" x="0px" y="0px"
	 width="42px" height="48px" viewBox="0 0 42 48" style="enable-background:new 0 0 42 48;" xml:space="preserve">
<style type="text/css">
	.st0{fill:#EEF0F3;}
	.st1{fill:#1F2D3B;}
</style>
<polygon class="st0" points="0.5,12.2 21,0.3 41.5,12.2 41.5,35.8 21,47.7 0.5,35.8 "/>
<g id="Layer_6">
	<path class="st1" d="M21,14.2c-3.6,0-6.5,2.9-6.5,6.5c0,3.6,6.5,13,6.5,13s6.5-9.4,6.5-13C27.5,17.2,24.6,14.2,21,14.2z M21,24.1
		c-1.8,0-3.3-1.5-3.3-3.2c0-1.8,1.5-3.2,3.3-3.2c1.8,0,3.3,1.5,3.3,3.2C24.3,22.7,22.8,24.1,21,24.1z"/>
</g>
</svg>
