<?xml version="1.0" encoding="utf-8"?>
<!-- Generator: Adobe Illustrator 18.1.1, SVG Export Plug-In . SVG Version: 6.00 Build 0)  -->
<!DOCTYPE svg PUBLIC "-//W3C//DTD SVG 1.1//EN" "http://www.w3.org/Graphics/SVG/1.1/DTD/svg11.dtd">
<svg version="1.1" id="Layer_1" xmlns="http://www.w3.org/2000/svg" xmlns:xlink="http://www.w3.org/1999/xlink" x="0px" y="0px"
	 width="21px" height="18px" viewBox="0 0 21 18" style="enable-background:new 0 0 21 18;" xml:space="preserve">
<style type="text/css">
	.st0{fill:#31C5F4;}
</style>
<path class="st0" d="M21,2.5c-0.8,0.3-1.6,0.6-2.5,0.7c0.9-0.5,1.6-1.4,1.9-2.4c-0.8,0.5-1.8,0.9-2.7,1c-0.8-0.8-1.9-1.4-3.1-1.4
	c-2.4,0-4.3,1.9-4.3,4.3c0,0.3,0,0.7,0.1,1C6.8,5.6,3.6,3.9,1.5,1.3C1.1,1.9,0.9,2.6,0.9,3.4c0,1.5,0.8,2.8,1.9,3.6
	c-0.7,0-1.4-0.2-2-0.5c0,0,0,0,0,0.1c0,2.1,1.5,3.8,3.5,4.2c-0.4,0.1-0.7,0.2-1.1,0.2c-0.3,0-0.5,0-0.8-0.1c0.5,1.7,2.1,3,4,3
	C4.9,15,3,15.7,1,15.7c-0.3,0-0.7,0-1-0.1c1.9,1.2,4.2,1.9,6.6,1.9c7.9,0,12.3-6.6,12.3-12.3c0-0.2,0-0.4,0-0.6
	C19.7,4.1,20.4,3.4,21,2.5z"/>
</svg>
