<?xml version="1.0" encoding="utf-8"?>
<!-- Generator: Adobe Illustrator 19.0.0, SVG Export Plug-In . SVG Version: 6.00 Build 0)  -->
<svg version="1.1" id="Layer_1" xmlns="http://www.w3.org/2000/svg" xmlns:xlink="http://www.w3.org/1999/xlink" x="0px" y="0px"
	 width="149px" height="55px" viewBox="0 0 149 55" style="enable-background:new 0 0 149 55;" xml:space="preserve">
<style type="text/css">
	.st0{fill:#414042;}
	.st1{fill:#76E5FF;}
	.st2{fill:#00C9FF;}
</style>
<g>
	<g>
		<path d="M46.8,16.4c0.2,0,0.4,0,0.5-0.1c0.1-0.1,0.2-0.2,0.2-0.4c0-0.1,0-0.2-0.1-0.3c0-0.1-0.1-0.1-0.2-0.2
			c-0.1,0-0.1-0.1-0.2-0.1c-0.1,0-0.2-0.1-0.3-0.1c-0.1,0-0.2-0.1-0.3-0.1c-0.1-0.1-0.2-0.1-0.2-0.2c-0.1-0.1-0.1-0.1-0.2-0.2
			c0-0.1-0.1-0.2-0.1-0.3c0-0.3,0.1-0.4,0.3-0.6c0.2-0.1,0.4-0.2,0.7-0.2c0.1,0,0.2,0,0.2,0c0.1,0,0.1,0,0.2,0c0.1,0,0.1,0,0.2,0.1
			c0.1,0,0.1,0,0.1,0.1L47.6,14c-0.1-0.1-0.2-0.1-0.3-0.1c-0.1,0-0.2-0.1-0.4-0.1c-0.1,0-0.2,0-0.3,0c-0.1,0-0.1,0-0.2,0.1
			c-0.1,0-0.1,0.1-0.1,0.2c0,0.1,0,0.1,0,0.2c0,0.1,0,0.2,0.1,0.2c0,0.1,0.1,0.1,0.1,0.2c0.1,0,0.1,0.1,0.2,0.1
			c0.1,0,0.2,0.1,0.3,0.1c0.1,0,0.2,0.1,0.3,0.1c0.1,0,0.2,0.1,0.3,0.2c0.1,0.1,0.1,0.1,0.2,0.2c0,0.1,0.1,0.2,0.1,0.3
			c0,0.3-0.1,0.5-0.3,0.6c-0.2,0.1-0.4,0.2-0.8,0.2c-0.1,0-0.2,0-0.3,0c-0.1,0-0.2,0-0.3-0.1c-0.1,0-0.1,0-0.2-0.1
			c-0.1,0-0.1,0-0.1-0.1l0.1-0.3c0,0,0.1,0,0.1,0.1c0,0,0.1,0,0.2,0.1c0.1,0,0.1,0,0.2,0.1C46.6,16.4,46.7,16.4,46.8,16.4z"/>
		<path d="M49.6,16.2c0-0.1-0.1-0.2-0.1-0.3s-0.1-0.2-0.2-0.4c-0.1-0.1-0.1-0.3-0.2-0.4c-0.1-0.1-0.1-0.3-0.2-0.4
			c-0.1-0.1-0.1-0.2-0.2-0.3c0-0.1-0.1-0.2-0.1-0.2c0,0.4-0.1,0.7-0.1,1.2c0,0.4,0,0.9-0.1,1.3h-0.3c0-0.5,0.1-1.1,0.1-1.5
			c0-0.5,0.1-1,0.1-1.4h0.3c0.1,0.1,0.2,0.3,0.3,0.5c0.1,0.2,0.2,0.4,0.3,0.6c0.1,0.2,0.2,0.4,0.3,0.6c0.1,0.2,0.2,0.4,0.2,0.5
			c0.1-0.2,0.1-0.3,0.2-0.5c0.1-0.2,0.2-0.4,0.3-0.6c0.1-0.2,0.2-0.4,0.3-0.6c0.1-0.2,0.2-0.4,0.3-0.5h0.2c0,0.5,0.1,0.9,0.1,1.4
			c0,0.5,0.1,1,0.1,1.5H51c0-0.5,0-0.9-0.1-1.3c0-0.4-0.1-0.8-0.1-1.2c0,0-0.1,0.1-0.1,0.2c0,0.1-0.1,0.2-0.2,0.3
			c-0.1,0.1-0.1,0.3-0.2,0.4c-0.1,0.1-0.1,0.3-0.2,0.4c-0.1,0.1-0.1,0.3-0.2,0.4c-0.1,0.1-0.1,0.2-0.1,0.3H49.6z"/>
	</g>
	<g>
		<g>
			<g>
				<path class="st0" d="M66.4,22.8h7v2.8h-7V34c0,0.9,0.1,1.7,0.2,2.3s0.4,1.1,0.6,1.4c0.3,0.3,0.6,0.6,1.1,0.7
					c0.4,0.1,0.9,0.2,1.5,0.2c1,0,1.8-0.1,2.4-0.3c0.6-0.2,1-0.4,1.3-0.5l0.6,2.7c-0.3,0.2-0.9,0.4-1.7,0.6
					c-0.8,0.2-1.8,0.4-2.8,0.4c-1.2,0-2.3-0.2-3.1-0.5c-0.8-0.3-1.5-0.8-2-1.4c-0.5-0.6-0.8-1.4-1-2.3c-0.2-0.9-0.3-2-0.3-3.2V17.7
					l3.3-0.6V22.8z"/>
				<path class="st0" d="M76.8,41.1V14.3l3.3-0.6v9.4c0.6-0.2,1.3-0.4,2-0.5c0.7-0.1,1.4-0.2,2.1-0.2c1.5,0,2.7,0.2,3.6,0.6
					c1,0.4,1.7,1,2.3,1.7c0.6,0.7,1,1.6,1.2,2.7c0.2,1,0.4,2.2,0.4,3.4v10.3h-3.3v-9.6c0-1.1-0.1-2.1-0.2-2.9
					c-0.2-0.8-0.4-1.4-0.8-1.9c-0.4-0.5-0.8-0.9-1.4-1.1c-0.6-0.2-1.3-0.3-2.2-0.3c-0.4,0-0.7,0-1.1,0.1c-0.4,0-0.7,0.1-1.1,0.2
					c-0.3,0.1-0.6,0.1-0.9,0.2c-0.3,0.1-0.5,0.1-0.6,0.2v15.3H76.8z"/>
				<path class="st0" d="M103.1,22.4c0.3,0,0.6,0,1,0.1c0.4,0,0.7,0.1,1.1,0.1c0.4,0.1,0.7,0.1,1,0.2c0.3,0.1,0.5,0.1,0.7,0.2
					l-0.6,2.9c-0.3-0.1-0.7-0.2-1.3-0.3c-0.6-0.1-1.4-0.2-2.3-0.2c-0.6,0-1.2,0.1-1.8,0.2c-0.6,0.1-1,0.2-1.2,0.3v15.4h-3.3V23.6
					c0.8-0.3,1.7-0.5,2.9-0.8C100.3,22.5,101.6,22.4,103.1,22.4z"/>
				<path class="st0" d="M110.8,19.5c-0.6,0-1.1-0.2-1.5-0.6c-0.4-0.4-0.6-0.9-0.6-1.6c0-0.7,0.2-1.2,0.6-1.6
					c0.4-0.4,0.9-0.6,1.5-0.6c0.6,0,1.1,0.2,1.5,0.6c0.4,0.4,0.6,0.9,0.6,1.6c0,0.7-0.2,1.2-0.6,1.6
					C111.9,19.3,111.4,19.5,110.8,19.5z M112.5,41.1h-3.3V22.8h3.3V41.1z"/>
				<path class="st0" d="M131.8,22.8c-0.9,3.4-2,6.7-3.2,9.9c-1.2,3.2-2.4,6-3.6,8.5h-3c-1.2-2.5-2.3-5.3-3.6-8.5
					c-1.2-3.2-2.3-6.5-3.2-9.9h3.5c0.3,1.2,0.6,2.4,1,3.7c0.4,1.3,0.8,2.6,1.2,3.9c0.4,1.3,0.9,2.5,1.3,3.7c0.4,1.2,0.9,2.3,1.3,3.2
					c0.4-0.9,0.8-2,1.3-3.2c0.4-1.2,0.9-2.4,1.3-3.7c0.4-1.3,0.8-2.6,1.2-3.9c0.4-1.3,0.7-2.5,1-3.7H131.8z"/>
				<path class="st0" d="M133,32c0-1.6,0.2-3,0.7-4.3c0.5-1.2,1.1-2.2,1.9-3c0.8-0.8,1.7-1.4,2.7-1.8c1-0.4,2-0.6,3.1-0.6
					c2.5,0,4.4,0.8,5.7,2.3c1.3,1.5,2,3.9,2,7c0,0.1,0,0.3,0,0.5c0,0.2,0,0.4,0,0.6h-12.6c0.1,1.9,0.7,3.4,1.7,4.3
					c1,1,2.5,1.5,4.5,1.5c1.2,0,2.1-0.1,2.9-0.3c0.8-0.2,1.4-0.4,1.8-0.6l0.5,2.8c-0.4,0.2-1.1,0.4-2.1,0.7c-1,0.2-2.1,0.4-3.4,0.4
					c-1.6,0-3-0.2-4.2-0.7c-1.2-0.5-2.1-1.1-2.9-2c-0.8-0.8-1.3-1.9-1.7-3C133.1,34.7,133,33.4,133,32z M145.6,30.2
					c0-1.5-0.3-2.7-1.1-3.7c-0.8-1-1.8-1.4-3.2-1.4c-0.8,0-1.4,0.1-2,0.4c-0.6,0.3-1.1,0.7-1.5,1.1c-0.4,0.5-0.7,1-0.9,1.6
					c-0.2,0.6-0.4,1.2-0.4,1.9H145.6z"/>
			</g>
		</g>
		<polygon class="st1" points="52.7,41.2 52.7,28.5 26.7,0.7 26.7,19.4 		"/>
		<polygon class="st2" points="0.7,41.2 0.7,28.5 26.7,0.7 26.7,19.4 		"/>
		<polygon class="st1" points="0.7,28.5 0.7,41.2 22.4,54.5 22.4,30.6 		"/>
		<polygon class="st2" points="52.7,28.5 52.7,41.2 30.8,54.5 30.8,30.6 		"/>
	</g>
</g>
</svg>
